<?xml version="1.0"?>
<svg xmlns="http://www.w3.org/2000/svg" id="outline" viewBox="0 0 512 512" width="512" height="512"><circle cx="240" cy="240" r="8"/><circle cx="272" cy="240" r="8"/><circle cx="112" cy="96" r="8"/><circle cx="144" cy="96" r="8"/><path d="M477.65625,282.34277a7.99971,7.99971,0,0,0-10.09375-.999l-11.67383,7.78271a15.128,15.128,0,0,0-4.35156-8.90234l-.10156-.10205a15.0928,15.0928,0,0,0-22.74707,1.61523l-17.95606,23.95215-24.64258,12.32178-26.34863-31.61816A39.89229,39.89229,0,0,0,329.01172,272H301.2478A47.76977,47.76977,0,0,0,304,256V211.314l8.68652-8.68652A24.97074,24.97074,0,0,0,295.0293,160H256a48.05468,48.05468,0,0,0-48,48v48a47.76977,47.76977,0,0,0,2.7522,16H182.98828a39.88993,39.88993,0,0,0-30.72851,14.39258l-26.34961,31.61865-24.64258-12.32178L83.31152,281.73779a15.09239,15.09239,0,0,0-22.76269-1.60009l-.06934.06933a15.15926,15.15926,0,0,0-4.36816,8.91943L44.4375,281.34375a7.99933,7.99933,0,0,0-10.09375.999l-8.70313,8.70215a32.919,32.919,0,0,0,5.6045,51.04834l63.72754,40.5542a59.827,59.827,0,0,0,78.835-13.1001L176,366.80664V496h16V424H320v72h16V366.80664l2.19238,2.74072a59.827,59.827,0,0,0,78.835,13.1001l63.72754-40.5542a32.91853,32.91853,0,0,0,5.60352-51.04883ZM224,208a32.03635,32.03635,0,0,1,32-32h39.0293a8.97038,8.97038,0,0,1,6.34277,15.314L292.686,200H240a8.00076,8.00076,0,0,0-5.65723,2.34326L224,212.686Zm55.26367,89.96619A48.31175,48.31175,0,0,0,291.73828,288H296v23.35522Zm12.75952,30.69714-15.57348,15.57349-4.14209-23.22266,2.66992-5.98755ZM224,235.31348,243.31348,216H288v40a32,32,0,0,1-64,0ZM254.55859,328h2.7417l5.35645,30.02979L256,364.68652l-7.31567-7.31567Zm-5.08252-22.936,1.63868-1.311a48.42092,48.42092,0,0,0,9.7705,0l1.17945.94348L258.80786,312h-5.86377Zm-9.85888,16.0586-4.53028,22.65088-15.1101-15.11011,16.72192-13.37769ZM216,288h4.26172a48.31175,48.31175,0,0,0,12.47461,9.96619L216,311.35522ZM39.835,328.59424a16.91866,16.91866,0,0,1-2.88086-26.23535l4.06543-4.06446,18.543,12.36182A8.00016,8.00016,0,0,0,72,304l-.001-10.67773,14.20557,18.94909L64.75171,344.45068Zm368.60254,40.5542a43.826,43.826,0,0,1-57.751-9.59619l-16.43945-20.54981A8.0001,8.0001,0,0,0,320,344v64H192V344a8.0001,8.0001,0,0,0-14.24707-4.99756l-16.43945,20.54981a43.827,43.827,0,0,1-57.751,9.59668L78.25293,353.04248l20.48584-30.72876,25.68311,12.84155a7.99961,7.99961,0,0,0,9.72363-2.03369l30.40625-36.48633A23.93194,23.93194,0,0,1,182.98828,288H200v40a8.00035,8.00035,0,0,0,2.34277,5.65674l48,48a8.00063,8.00063,0,0,0,11.31446,0l48-48A8.00035,8.00035,0,0,0,312,328V288h17.01172a23.93429,23.93429,0,0,1,18.4375,8.63574l30.40527,36.48584a7.99884,7.99884,0,0,0,9.72363,2.03369l25.68311-12.84155,20.48584,30.72852Zm63.72754-40.5542-24.91675,15.8562-21.45288-32.17908L440.001,293.32227,440,304a8.00016,8.00016,0,0,0,12.4375,6.65625l18.543-12.36182,4.06445,4.064a16.91815,16.91815,0,0,1-2.87988,26.23584Z"/><rect x="248" y="456" width="16" height="40"/><path d="M32,232H56v32H72V200H56v16H32V178a34.03833,34.03833,0,0,1,34-34h6v40a7.99975,7.99975,0,0,0,12.99707,6.24707L108.69849,171.286l3.02807,6.05682-7.64648,53.52588a8.00223,8.00223,0,0,0,2.26269,6.78809l16,16A8.00178,8.00178,0,0,0,128,256c.03711,0,.07422-.00049.11133-.001a7.99753,7.99753,0,0,0,5.70019-2.50146l15.13477-16a7.99788,7.99788,0,0,0,2.124-6.50879l-6.85156-53.77734,2.7583-6.18506,24.02588,19.2207A7.99969,7.99969,0,0,0,184,184V144h6a34.135,34.135,0,0,1,27.52832,14.04l12.94336-9.40527A50.18078,50.18078,0,0,0,190,128H173.2478A47.76951,47.76951,0,0,0,176,112V40a24.02718,24.02718,0,0,0-24-24H128A48.054,48.054,0,0,0,80,64v48a47.76951,47.76951,0,0,0,2.7522,16H66a50.05635,50.05635,0,0,0-50,50v94H32Zm95.84082,4.52686-7.35547-7.35547L126.93872,184h2.01611l5.76587,45.25391Zm-6.36475-75.463,1.63868-1.311a48.40922,48.40922,0,0,0,9.7705,0l1.17945.94354L130.80786,168h-5.86377ZM163.73828,144H168v23.355l-16.73633-13.38885A48.31153,48.31153,0,0,0,163.73828,144ZM96,64a32.03635,32.03635,0,0,1,32-32h24a8.00917,8.00917,0,0,1,8,8V56H112a8.00076,8.00076,0,0,0-5.65723,2.34326L96,68.686Zm0,27.31348L115.31348,72H160v40a32,32,0,0,1-64,0ZM88,144h4.26172a48.31153,48.31153,0,0,0,12.47461,9.96613L88,167.355Z"/><circle cx="368" cy="96" r="8"/><circle cx="400" cy="96" r="8"/><path d="M446,128H429.2478A47.76951,47.76951,0,0,0,432,112V40a24.02718,24.02718,0,0,0-24-24H384a48.054,48.054,0,0,0-48,48v48a47.76951,47.76951,0,0,0,2.7522,16H322a49.63685,49.63685,0,0,0-29.36523,9.52832l9.40625,12.94336A33.7328,33.7328,0,0,1,322,144h6v40a7.99975,7.99975,0,0,0,12.99707,6.24707l24.02588-19.2207,2.7583,6.18506-6.85156,53.77734a7.99788,7.99788,0,0,0,2.124,6.50879l15.13477,16a7.99753,7.99753,0,0,0,5.70019,2.50146c.03711.00049.07422.001.11133.001a8.00178,8.00178,0,0,0,5.65723-2.34326l16-16a8.00223,8.00223,0,0,0,2.26269-6.78809l-7.64648-53.52588,3.02807-6.05682,23.70142,18.96112A7.99969,7.99969,0,0,0,440,184V144h6a34.03833,34.03833,0,0,1,34,34v38H456V200H440v64h16V232h24v40h16V178A50.05635,50.05635,0,0,0,446,128ZM352,64a32.03635,32.03635,0,0,1,32-32h24a8.00917,8.00917,0,0,1,8,8V56H368a8.00076,8.00076,0,0,0-5.65723,2.34326L352,68.686Zm-8,103.355V144h4.26172a48.31153,48.31153,0,0,0,12.47461,9.96613Zm40.15918,69.17188-6.87988-7.273L383.04517,184h2.01611l6.45337,45.17139Zm-6.22388-75.83045,1.17945-.94354a48.40922,48.40922,0,0,0,9.7705,0l1.63868,1.311L387.05591,168h-5.86377ZM384,144a32.03635,32.03635,0,0,1-32-32V91.31348L371.31348,72H416v40A32.03635,32.03635,0,0,1,384,144Zm40,23.355-16.73633-13.38885A48.31153,48.31153,0,0,0,419.73828,144H424Z"/></svg>
